<?xml version="1.0" standalone="no"?>
<!DOCTYPE svg PUBLIC "-//W3C//DTD SVG 20010904//EN"
 "http://www.w3.org/TR/2001/REC-SVG-20010904/DTD/svg10.dtd">
<svg version="1.0" xmlns="http://www.w3.org/2000/svg"
 width="512.000000pt" height="512.000000pt" viewBox="0 0 512.000000 512.000000"
 preserveAspectRatio="xMidYMid meet">
<metadata>
Created by potrace 1.14, written by Peter Selinger 2001-2017
</metadata>
<g transform="translate(0.000000,512.000000) scale(0.100000,-0.100000)"
fill="#000000" stroke="none">
<path d="M1257 4649 c-197 -21 -392 -107 -541 -240 -127 -113 -244 -309 -288
-484 l-23 -90 0 -1275 0 -1275 23 -90 c45 -178 162 -372 293 -488 116 -103
277 -184 439 -223 69 -17 168 -18 1320 -22 825 -2 1282 0 1355 7 246 24 437
111 601 275 123 124 213 282 256 452 l23 89 0 1275 0 1275 -23 89 c-102 402
-428 682 -842 726 -115 12 -2478 11 -2593 -1z m2442 -1033 c7 -5 11 -53 11
-145 l0 -137 -74 1 c-60 0 -80 -4 -103 -21 -42 -30 -61 -79 -65 -164 l-3 -75
118 -3 118 -3 -3 -142 -3 -142 -117 -3 -118 -3 0 -479 0 -480 -170 0 -170 0 0
480 0 479 -82 3 -83 3 -3 143 -3 142 86 0 85 0 0 68 c1 154 55 299 144 387 63
61 136 93 236 103 67 7 179 0 199 -12z m-1354 -165 c195 -48 318 -138 394
-288 74 -146 65 -391 -19 -538 -41 -71 -145 -167 -222 -204 -119 -56 -197 -73
-383 -80 l-170 -6 -3 -258 -2 -257 -173 2 -172 3 0 820 0 820 150 6 c263 11
509 3 600 -20z"/>
<path d="M1973 3173 l-33 -4 0 -266 0 -266 143 5 c169 6 236 26 298 90 48 50
64 95 63 183 0 121 -64 205 -181 241 -49 15 -231 26 -290 17z"/>
</g>
</svg>
